:SAMPLES-PER-SECOND 30
:FULLY-SPECIFIED
:DEGREES
35
root  6.98267 39.3807 0.592931 -73.9165 86.5372 -72.8121
RightUpLeg  -2.50629 5.39341 10.3082
RightLeg  15.5258 5.83334 -2.18262
RightFoot  -5.96611 0.361763 -5.79623
RightToes  -9.02219e-009 -1.59028e-015 9.93923e-017
Spine  -2.25132 0.174819 8.46044
Spine1  10.1003 1.31844 -3.46556
HEad  -9.21032 0.898368 4.3255
LeftShoulder1  9.93923e-017 0 1.22299e-017
LeftArm  -12.9282 42.4597 -76.0756
LeftForeArm  8.08204 -2.95556 -5.85396
LeftHand  1.08696 8.71141 -10.1357
RightShoulder  1.98785e-016 -4.96962e-017 1.55301e-017
RightArm  15.2471 -17.9019 88.4068
RightForeArm  -29.9792 32.8648 -29.9159
RightHand  1.50578 -12.0082 -7.89585
LeftUpLeg  -23.7277 -9.38572 4.4596
LeftLeg  43.5003 -8.55628 2.63113
LeftFoot  7.96412 1.10902 -5.74745
LeftToes  7.69435e-010 2.06924e-010 1.0715e-010
36
root  8.73183 39.4855 0.552993 -51.8189 85.8927 -51.0062
RightUpLeg  0.982181 4.29514 9.94963
RightLeg  13.4874 8.47488 -1.61137
RightFoot  -6.04899 0.350721 -5.69127
RightToes  -9.02219e-009 -1.59028e-015 9.93923e-017
Spine  -2.62542 1.45158 10.2777
Spine1  10.6403 2.93553 -5.56658
HEad  -11.2094 -0.43897 4.31722
LeftShoulder1  9.93923e-017 0 1.22299e-017
LeftArm  -5.8075 48.6784 -72.0524
LeftForeArm  5.31744 -3.80656 -6.27637
LeftHand  1.08002 8.98868 -11.333
RightShoulder  1.98785e-016 -4.96962e-017 1.55301e-017
RightArm  19.2495 -8.83656 87.1748
RightForeArm  -30.004 36.4523 -32.982
RightHand  1.58297 -12.2605 -8.56167
LeftUpLeg  -25.7484 -7.2624 4.42654
LeftLeg  33.5163 -8.63737 1.26677
LeftFoot  6.38321 1.00749 -5.66084
LeftToes  7.69435e-010 2.06924e-010 1.0715e-010
37
root  10.484 39.4375 0.529681 -37.2631 85.1705 -36.8844
RightUpLeg  4.26137 3.6824 9.28644
RightLeg  11.8066 10.467 -1.37653
RightFoot  -7.38272 0.28055 -5.61595
RightToes  -9.02219e-009 -1.59028e-015 9.93923e-017
Spine  -2.94502 2.67026 10.8974
Spine1  10.7701 4.21842 -6.50332
HEad  -12.0941 -1.81018 4.25632
LeftShoulder1  9.93923e-017 0 1.22299e-017
LeftArm  3.01562 55.0901 -67.1461
LeftForeArm  -0.0368241 -4.77978 -6.76844
LeftHand  1.06447 8.61583 -11.2092
RightShoulder  1.98785e-016 -4.96962e-017 1.55301e-017
RightArm  21.7827 -0.707433 85.6634
RightForeArm  -30.2153 38.7081 -35.0928
RightHand  1.6236 -12.4206 -8.80908
LeftUpLeg  -26.8372 -5.82786 4.35778
LeftLeg  21.7736 -8.41256 0.0049655
LeftFoot  5.61873 0.949985 -5.56716
LeftToes  7.69435e-010 2.06924e-010 1.0715e-010
38
root  12.2231 39.2553 0.501895 -29.1097 84.7793 -29.1754
RightUpLeg  7.51865 3.01877 8.31457
RightLeg  10.1313 11.8098 -1.08335
RightFoot  -8.83991 0.190537 -5.11081
RightToes  -9.02219e-009 -1.59028e-015 9.93923e-017
Spine  -2.96921 3.63249 11.3179
Spine1  10.6089 5.36026 -7.60165
HEad  -12.164 -3.0727 4.41996
LeftShoulder1  9.93923e-017 0 1.22299e-017
LeftArm  10.9904 60.5258 -60.3357
LeftForeArm  -3.26594 -6.39903 -6.38967
LeftHand  1.04046 8.06499 -11.391
RightShoulder  1.98785e-016 -4.96962e-017 1.55301e-017
RightArm  22.3891 5.80563 84.1138
RightForeArm  -30.119 39.964 -36.3625
RightHand  1.6076 -12.3611 -8.70488
LeftUpLeg  -27.4148 -4.13532 3.41847
LeftLeg  9.82452 -9.10883 -0.0911431
LeftFoot  4.70822 0.900649 -5.56437
LeftToes  7.69435e-010 2.06924e-010 1.0715e-010
39
root  13.9924 38.9466 0.438866 -28.3181 84.5252 -28.4812
RightUpLeg  10.715 2.41113 7.72301
RightLeg  9.39103 12.6462 -0.764414
RightFoot  -10.0424 0.116653 -4.3846
RightToes  -9.02219e-009 -1.59028e-015 9.93923e-017
Spine  -2.64273 4.26762 12.5308
Spine1  10.786 6.44507 -9.02275
HEad  -12.3342 -4.03534 4.39363
LeftShoulder1  9.93923e-017 0 1.22299e-017
LeftArm  17.1734 63.7757 -52.5192
LeftForeArm  -3.73013 -7.64434 -5.73533
LeftHand  1.023 7.73527 -12.04
RightShoulder  1.98785e-016 -4.96962e-017 1.55301e-017
RightArm  21.8685 10.8669 82.57
RightForeArm  -30.0028 40.4923 -36.9228
RightHand  1.65514 -12.5006 -9.12444
LeftUpLeg  -27.8139 -2.26791 2.39841
LeftLeg  1.06139 -9.76848 0.480486
LeftFoot  2.20664 0.731891 -5.2706
LeftToes  7.69435e-010 2.06924e-010 1.0715e-010
40
root  15.878 38.5609 0.340556 -30.4903 84.471 -30.6343
RightUpLeg  13.6358 2.2233 7.52906
RightLeg  9.87312 12.8666 -0.775041
RightFoot  -11.034 0.0644578 -3.58031
RightToes  -9.02219e-009 -1.59028e-015 9.93923e-017
Spine  -2.73617 4.67922 13.6682
Spine1  11.5895 7.27099 -9.92443
HEad  -12.7508 -4.57692 4.02028
LeftShoulder1  9.93923e-017 0 1.22299e-017
LeftArm  19.2451 64.9582 -46.2459
LeftForeArm  -1.78092 -6.1026 -5.96342
LeftHand  1.02751 7.87473 -12.1136
RightShoulder  1.98785e-016 -4.96962e-017 1.55301e-017
RightArm  21.0086 14.4045 81.4321
RightForeArm  -29.6157 40.4112 -36.8671
RightHand  1.79515 -12.9292 -10.2004
LeftUpLeg  -28.5454 -1.99241 2.26937
LeftLeg  -1.52821 -7.87455 0.669714
LeftFoot  -0.740975 0.53112 -4.80099
LeftToes  7.69435e-010 2.06924e-010 1.0715e-010
41
root  17.9362 38.121 0.234196 -26.3926 84.8525 -26.9736
RightUpLeg  15.882 2.7193 6.89015
RightLeg  11.2637 12.1815 -0.981641
RightFoot  -11.6471 0.0288508 -1.85049
RightToes  -9.02219e-009 -1.59028e-015 9.93923e-017
Spine  -3.90909 5.07203 13.3269
Spine1  12.5845 7.76895 -10.0959
HEad  -12.9865 -4.93938 4.08119
LeftShoulder1  9.93923e-017 0 1.22299e-017
LeftArm  16.5861 64.9734 -42.5313
LeftForeArm  2.20709 -3.47638 -6.06238
LeftHand  1.06361 8.41194 -10.6731
RightShoulder  1.98785e-016 -4.96962e-017 1.55301e-017
RightArm  19.444 15.5079 81.038
RightForeArm  -28.8634 40.2015 -36.7087
RightHand  1.89962 -13.2163 -11.0262
LeftUpLeg  -29.6476 -2.54869 1.82256
LeftLeg  1.2527 -4.9167 0.942617
LeftFoot  -0.309972 0.538855 -4.68227
LeftToes  7.69435e-010 2.06924e-010 1.0715e-010
42
root  20.1205 37.6677 0.136421 -9.25897 85.3352 -10.5308
RightUpLeg  17.2079 3.87591 4.99631
RightLeg  13.9859 10.8303 -0.50742
RightFoot  -10.9395 -0.0237915 1.44085
RightToes  -9.02219e-009 -1.59028e-015 9.93923e-017
Spine  -5.229 5.45722 11.5008
Spine1  12.9632 8.13731 -10.3289
HEad  -13.1388 -5.54186 5.22909
LeftShoulder1  9.93923e-017 0 1.22299e-017
LeftArm  12.3062 64.3559 -41.0108
LeftForeArm  4.80829 -2.05919 -5.45352
LeftHand  1.12654 8.86639 -7.81133
RightShoulder  1.98785e-016 -4.96962e-017 1.55301e-017
RightArm  16.7398 13.4144 81.3835
RightForeArm  -28.4373 40.51 -37.0656
RightHand  1.92365 -13.2119 -11.4238
LeftUpLeg  -30.7334 -4.2941 1.11241
LeftLeg  6.72611 -1.57257 1.50165
LeftFoot  4.7088 0.74347 -4.57388
LeftToes  7.69435e-010 2.06924e-010 1.0715e-010
